<svg xmlns="http://www.w3.org/2000/svg" width="20" height="21" fill="none">
  <g clip-path="url(#a)">
    <path fill="#D6D6D6" fill-opacity=".06" d="M0 .818h20v19.364H0z"/>
    <path fill="#B6BAC6" fill-rule="evenodd" d="M19.477 17.201v2.34c-.488-.163-.97-.349-1.468-.476-.175-.045-.387.056-.583.09.006.034.016.065.021.098l.56.071c-.323.142-.64.24-.965.317-.134.033-.28.043-.416.023-.445-.07-.877-.193-1.344-.179-.267.01-.541-.26-.8.06-.026.034-.133 0-.202.008-.341.041-.678.087-1.03.134l-.083-.271c-.064.193-.067.337-.141.388-.17.123-.373.215-.596.059.139-.051.261-.094.384-.137a23.293 23.293 0 0 0-1.546-.028c-.058.002-.164.038-.169.07-.05.302-.297.18-.449.195-.112.01-.236-.109-.355-.172-.021-.01-.04-.029-.112-.084-.04.082-.08.165-.12.256-.291-.29-.606-.326-.908-.233-.18.056-.323.231-.482.351h-.06c-.102-.181-.211-.36-.304-.546-.082-.165-.178-.184-.36-.143-.193.044-.407.006-.612 0-.101-.004-.202-.017-.303-.026l-.041.095-.363-.416-.157.311-.23-.309c-.037.167-.06.263-.08.357-.084-.049-.17-.096-.26-.148l-.153.189-.139-.174-.397.158-.103-.238c-.298.07-.592.14-.897.21a26.365 26.365 0 0 1-.118-.379l-.202.293a8.338 8.338 0 0 0-.119-.096c-.158.041-.245.087-.33.083-.501-.019-1-.085-1.495.067-.078.024-.177-.025-.282-.043l-.067.175-.104-.268-.288.225-.055-.31-.494-.097c.228-.824.177-1.63.11-2.439a6.23 6.23 0 0 1 .017-.926c.01-.164.019-.354.271-.357.037 0 .103-.096.103-.147.007-.627.004-1.254.004-1.864-.093-.066-.301-.142-.304-.225-.026-.76-.015-1.525-.015-2.287l.194.022-.168-.292.428.16c-.058-.315-.033-.612-.164-.802a1.223 1.223 0 0 1-.224-.926c.036-.258.057-.531.014-.786C.65 6.555.663 4.92.786 3.28c.02-.284.038-.569.06-.899-.255.122-.341.055-.323-.164.02-.219.026-.439.044-.659.004-.04.048-.078.081-.128l.034.533H.77l.1-.663c.563.255.658.244 1.217-.088.183.057.313.124.446.134.179.013.36-.038.54-.024.215.016.427.09.644.104.43.025.86.036 1.29.032.122-.001.243-.07.358-.106.158.08.319.212.495.237.314.042.642.052.956.012.282-.037.623.224.849-.148.015-.025.101.002.143-.018a.457.457 0 0 0 .183-.13c.145-.212.33-.306.588-.254.058.012.148.033.174.004.203-.227.421-.066.633-.039.11.013.23.066.324.036.361-.113.71-.026 1.07.004.588.049 1.05.232 1.244.838.197-.02.385-.059.571-.053.189.005.29-.086.324-.242.03-.125.006-.262.006-.418 1.203-.152 2.402.073 3.623.12-.011-.142-.018-.25-.028-.356l.071-.026c.043.088.072.19.137.26.066.07.213.173.244.15.203-.154.373-.016.563.014.184.029.379-.024.568-.017.232.01.472.013.685.081.167.053.304.2.449.31.043.034.098.084.103.131.023.238.108.506.027.709-.125.327-.047.627-.026.938.045.646.092 1.293.139 1.939v.24c-.028.456-.055.912-.086 1.368-.032.496-.032.496-.503.55-.016.001-.028.022-.047.038.01.04.013.081.028.115.109.217.166.398-.087.588-.08.06-.071.326-.013.458.12.28.407.489.33.854-.016.07.06.16.095.238.023.05.078.1.074.145-.054.516-.114 1.031-.172 1.556-.074.021-.153.047-.237.07l-.001.087.541.09a2225.854 2225.854 0 0 0 .038 4.953c.003.14.026.278.038.417Zm-9.36-4.883.095-.063c.107.22.213.444.323.665.04.078.073.164.135.221.093.088.225.138.31.232.203.23.376.483.577.711.283.322.586.63.877.944.34.367.64.778 1.02 1.095.645.537 1.448.565 2.245.565.23 0 .369-.085.482-.276.57-.958.934-1.98 1.03-3.1.018-.223-.047-.345-.23-.46-.355-.222-.688-.48-1.049-.696-.18-.107-.4-.15-.595-.238a.877.877 0 0 1-.279-.19c-.092-.094-.141-.244-.244-.315-1.051-.73-2.096-1.467-3.169-2.162C9.98 8.17 8.451 6.88 6.643 6.022c-.028-.013-.022-.085-.05-.11-.05-.044-.154-.113-.162-.104-.182.194-.202-.057-.264-.109-.157-.131-.27-.315-.43-.441-.29-.229-.601-.43-.902-.645-.65-.462-1.464-.404-2.076.151.043.054.083.112.13.162C4.247 6.38 5.604 7.834 6.966 9.282c.179.191.32.444.636.454.049.001.13.059.137.101.087.44.478.648.73.96.482.599 1.096 1.075 1.552 1.7.073.1.186.17.282.253.023-.023.048-.046.07-.07l-.256-.362Zm-2.144 3.76c-1.29-1.25-2.52-2.443-3.776-3.658-.128.276-.244.508-.343.746-.287.68-.572 1.361-.847 2.048-.078.194-.068.393.127.539.497.367.993.736 1.485 1.102.245-.172.342-.152.387.133.97-.297 1.93-.593 2.967-.91Zm3.78-10.934 3.152 2.42c.012-.014.027-.028.04-.041-.03-.064-.057-.128-.086-.192l.073-.036c.036.088.05.2.113.258.107.098.246.16.373.237.043-.081.11-.157.124-.242.098-.57.184-1.143.272-1.716.024-.168.041-.34.07-.59l-.164.177-.046-.04c.065-.074.127-.15.209-.245-.287-.206-.563-.439-.873-.61a.882.882 0 0 0-.575-.09c-.872.208-1.735.454-2.682.71Z" clip-rule="evenodd"/>
  </g>
  <defs>
    <clipPath id="a">
      <path fill="#fff" d="M0 .818h20v19.364H0z"/>
    </clipPath>
  </defs>
</svg>
