<svg xmlns="http://www.w3.org/2000/svg" width="20" height="20" fill="none">
  <path fill="#B6BAC6" fill-rule="evenodd" d="M9.962 19.444c-2.976 0-5.953.002-8.93 0-.633 0-.642-.008-.642-.617V.845c0-.61.011-.62.64-.622h17.943c.632 0 .639.007.639.62v17.982c0 .617-.002.62-.637.62H9.962Zm.044-.717 8.246-.001c.6 0 .64-.04.64-.64.002-5.498.002-10.996 0-16.494 0-.617-.034-.65-.669-.65H1.77c-.627 0-.66.033-.66.659v16.455c0 .642.029.67.69.671h8.207Z" clip-rule="evenodd"/>
  <path fill="#B6BAC6" fill-rule="evenodd" d="M3.505 17.802c.313-.36.565-.67.838-.96.436-.463.636-.999.634-1.639-.009-3.675-.014-7.349.001-11.023.004-1.05-.405-1.864-1.221-2.495-.052-.04-.116-.065-.121-.164H9.4c-.336.464-.695.879-.952 1.349a2.26 2.26 0 0 0-.253 1.035c-.018 3.366-.006 6.733-.018 10.099-.001.383.128.582.497.698 2.68.844 5.051.332 7.11-1.587.087-.078.176-.154.344-.305l-.411 1.474c-.292 1.059-.589 2.118-.874 3.18-.076.282-.243.387-.523.387-3.5-.004-7-.003-10.5-.004-.078-.001-.155-.022-.316-.045Z" clip-rule="evenodd"/>
</svg>
