<svg width="56" height="50" viewBox="0 0 56 50" fill="none" xmlns="http://www.w3.org/2000/svg">
<path fill-rule="evenodd" clip-rule="evenodd" d="M25.9863 0.169612C24.6348 0.51704 23.0388 1.4439 22.048 2.47361C21.8034 2.73075 21.5074 2.93704 21.4046 2.93704C21.3017 2.93704 18.9463 2.3319 16.1789 1.58561C10.9149 0.169614 10.1297 0.0410426 9.24115 0.414185C8.08287 0.903327 7.23315 2.19018 7.23315 3.47761C7.23315 4.67475 7.77373 5.67875 8.73887 6.24503C9.0863 6.45075 11.1971 7.06903 14.5177 7.9696C17.4006 8.7416 19.7691 9.3856 19.7817 9.39817C19.7949 9.42389 19.936 9.87417 20.0909 10.4022C20.5286 11.8565 21.0949 12.809 22.1628 13.8902C23.6171 15.3702 25.02 16.0656 27.0537 16.3102C29.512 16.6193 31.9063 15.7953 33.824 13.9805L34.5188 13.3239L39.8863 14.7656C42.8462 15.5507 45.3822 16.1942 45.5365 16.1942C46.1542 16.1942 47.12 15.7822 47.6862 15.293C49.5011 13.6839 48.9731 10.685 46.7211 9.83589C46.4125 9.71988 43.9411 9.02503 41.2251 8.29132C38.1491 7.46732 36.244 6.90103 36.18 6.7856C36.13 6.68567 35.9829 6.22111 35.8326 5.74619L35.8194 5.70446C35.0988 3.29761 33.2068 1.32847 30.684 0.38904C29.5903 -0.023531 27.1834 -0.126387 25.9863 0.169612ZM28.8183 5.57532C29.2817 5.71703 29.616 5.93589 29.9766 6.3216C31.2377 7.68617 30.8645 9.75817 29.2046 10.5947C28.0977 11.1353 26.9651 10.9553 26.0897 10.0799C25.2143 9.20446 25.0343 8.07189 25.588 6.95246C25.9354 6.24446 26.412 5.83246 27.1708 5.56218C27.7754 5.34389 28.0331 5.34389 28.8183 5.57532ZM11.5326 9.87416C11.0691 10.093 10.8246 10.4016 9.26742 12.8604C8.95063 13.359 8.47156 14.114 7.8976 15.0187C6.72291 16.8701 5.15076 19.348 3.75885 21.5353L0 27.4559L0.0645714 29.129C0.141714 31.1884 0.437714 32.3856 1.31314 34.1484C2.87028 37.3278 5.83085 39.7473 9.22856 40.6484C10.5286 40.9958 12.884 41.1244 14.184 40.9187C19.8085 40.0433 24.0691 35.4998 24.648 29.7593C24.7383 28.7684 24.7508 28.1376 24.6611 27.7513C24.5708 27.365 22.8977 24.6107 19.2811 18.8833C16.3851 14.3267 13.9011 10.453 13.7468 10.2856C13.4377 9.93816 12.7817 9.62902 12.3566 9.62902C12.1886 9.62959 11.8286 9.74559 11.5326 9.87416ZM16.436 21.5742C18.6114 24.9981 20.3617 27.8296 20.3228 27.8553C20.2971 27.881 16.6806 27.8941 12.2914 27.881L4.29885 27.8421L8.31428 21.5227C10.5154 18.0347 12.356 15.229 12.4074 15.2804C12.4463 15.3187 14.2611 18.1633 16.436 21.5742ZM41.9977 18.8707C42.1651 18.6004 42.5382 18.2662 42.8217 18.1244C43.1051 17.9833 43.4651 17.8673 43.6331 17.8673C44.1091 17.8673 44.7399 18.189 45.0874 18.601C45.5634 19.1673 55.6159 35.0633 55.8474 35.6164C56.0016 35.977 56.0274 36.389 55.9759 37.4313C55.6668 43.0558 51.8954 47.5993 46.4125 48.9764C45.1902 49.2724 42.1268 49.285 40.9297 48.9764C36.708 47.921 33.3228 44.8964 31.9971 40.9838C31.56 39.7221 31.3022 38.2164 31.3022 36.9936C31.3022 36.1307 31.3537 35.8604 31.5982 35.4359C31.8817 34.9599 41.3028 19.9267 41.9977 18.8707ZM51.6382 36.0536C51.6382 36.0147 49.8622 33.1707 47.6999 29.7467C45.5245 26.3364 43.7097 23.5302 43.6582 23.5307C43.5554 23.5307 35.8971 35.7067 35.8325 35.9638C35.7942 36.1181 37.12 36.1438 43.7097 36.1438C48.0731 36.1438 51.6382 36.105 51.6382 36.0536Z" fill="white"/>
</svg>
